<?xml version="1.0" encoding="UTF-8"?>
<svg width="100px" height="52px" viewBox="0 0 100 52" version="1.1" xmlns="http://www.w3.org/2000/svg" xmlns:xlink="http://www.w3.org/1999/xlink">
    <title>5E13A249-2258-499F-87CC-5472CB264876</title>
    <defs>
        <path d="M94.1108511,51.4005674 L94.1108511,45.562766 L94.1961702,45.4775177 L96.6715603,45.4775177 C97.059078,45.4775177 97.3995745,45.507234 97.692766,45.5666667 C97.9892908,45.6268794 98.2365248,45.7173759 98.434539,45.8380851 C98.6392199,45.9629787 98.7929787,46.140922 98.8947518,46.3711348 C98.9942553,46.596383 99.0443262,46.8714184 99.0443262,47.1959574 C99.0443262,47.6860993 98.9084397,48.0756028 98.6367376,48.3635461 C98.4053901,48.6088652 98.0775887,48.7775177 97.6539716,48.8696454 C97.8014184,48.9746809 97.952695,49.112766 98.1080851,49.2838298 C98.3275887,49.5270213 98.556383,49.8378014 98.7934752,50.2159574 L98.7937589,50.2159574 L99.506383,51.3557447 L99.4341135,51.4858156 L98.0087943,51.4858156 L97.9378723,51.4475887 L96.6841844,49.5583688 C96.6242553,49.4695035 96.5612766,49.3919149 96.4949645,49.3267376 C96.4308511,49.2631915 96.3637589,49.2107092 96.2933333,49.17 C96.2246099,49.1298582 96.1346809,49.0998582 96.0235461,49.0795035 C95.9088652,49.0585816 95.7704965,49.0478723 95.609078,49.0478723 L95.456383,49.0478723 L95.456383,51.4005674 L95.3711348,51.4858156 L94.1961702,51.4858156 L94.1108511,51.4005674 Z M95.456383,47.9526241 L96.2361702,47.9526241 C96.5279433,47.9526241 96.7708511,47.9405674 96.9639007,47.9160284 L96.9641844,47.9160284 C97.1531206,47.8924113 97.2948227,47.8574468 97.3882979,47.8115603 L97.3885816,47.8112766 C97.4743972,47.7697163 97.5387234,47.7067376 97.5814184,47.6228369 C97.6265248,47.5340426 97.6487943,47.4195745 97.6487943,47.2795745 C97.6487943,47.1459574 97.6297872,47.0361702 97.5924113,46.9498582 C97.5574468,46.8695035 97.505461,46.8092908 97.437234,46.7696454 C97.3632624,46.7267376 97.2323404,46.6937589 97.0444681,46.6712057 C96.8489362,46.647305 96.5956028,46.635461 96.2839716,46.635461 L95.456383,46.635461 L95.456383,47.9526241 Z M88.0593617,51.4005674 L88.0593617,45.562766 L88.1448936,45.4775177 L92.4823404,45.4775177 L92.5678723,45.562766 L92.5678723,46.5502128 L92.4823404,46.635461 L89.4051773,46.635461 L89.4051773,47.7524113 L92.2576596,47.7524113 L92.3429078,47.8379433 L92.3429078,48.8253191 L92.2576596,48.9103546 L89.4051773,48.9103546 L89.4051773,50.3279433 L92.5951064,50.3279433 L92.6803546,50.4129078 L92.6803546,51.4005674 L92.5951064,51.4858156 L88.1448936,51.4858156 L88.0593617,51.4005674 Z M82.5144681,51.4005674 L82.5144681,45.562766 L82.5997872,45.4775177 L86.6,45.4775177 L86.6849645,45.562766 L86.6849645,46.5502128 L86.6,46.635461 L83.86,46.635461 L83.86,47.8401418 L86.2124823,47.8401418 L86.2977305,47.9251064 L86.2977305,48.9128369 L86.2124823,48.9980851 L83.86,48.9980851 L83.86,51.4005674 L83.7747518,51.4858156 L82.5997872,51.4858156 L82.5144681,51.4005674 Z M76.2399291,49.4180851 L77.3898582,49.3034043 L77.481773,49.3729787 C77.5460993,49.7239007 77.677305,49.9860284 77.8761702,50.158227 C78.0739007,50.3295745 78.3420567,50.4153901 78.681773,50.4153901 C79.0489362,50.4153901 79.3214894,50.3540426 79.4989362,50.2319149 C79.6669504,50.1160993 79.7508511,49.9406383 79.7508511,49.7046809 C79.7508511,49.6191489 79.7332624,49.5446099 79.6975177,49.4824113 C79.6619858,49.42 79.6078014,49.3668794 79.5343972,49.3234752 L79.5338298,49.3231915 C79.4546099,49.2758865 79.3135461,49.2189362 79.1108511,49.1529078 C78.9029078,49.0849645 78.6355319,49.009078 78.3093617,48.9243972 L78.3093617,48.9246099 C77.6726241,48.7659574 77.192695,48.5357447 76.8708511,48.2351064 C76.5408511,47.927305 76.3755319,47.5478014 76.3755319,47.0983688 C76.3755319,46.8260284 76.4275177,46.5840426 76.5314894,46.3717021 C76.6356738,46.159078 76.7916312,45.9778014 76.9990071,45.8290071 L76.9992908,45.8287234 C77.2039716,45.6824113 77.4404965,45.572695 77.7095035,45.4992199 C77.9757447,45.426383 78.2730496,45.3900709 78.6006383,45.3900709 C79.3490071,45.3900709 79.9183688,45.5429787 80.3086525,45.8493617 C80.7033333,46.159078 80.911844,46.6219858 80.9332624,47.2366667 L80.851844,47.3246809 L79.6768794,47.3728369 L79.5896454,47.3016312 C79.5465248,47.0444681 79.4430496,46.852766 79.2794326,46.7267376 C79.1138298,46.5991489 78.8825532,46.5353191 78.5860284,46.5353191 C78.2675177,46.5353191 78.0312766,46.579078 77.8780851,46.6656738 C77.7402837,46.7438298 77.6712766,46.8609929 77.6712766,47.0169504 C77.6712766,47.0661702 77.682766,47.1143262 77.7058865,47.1610638 C77.7306383,47.2108511 77.7683688,47.2600709 77.8195035,47.3095745 C77.8703546,47.3577305 77.9829078,47.4138298 78.1564539,47.4773759 C78.3373759,47.5439007 78.58,47.6156738 78.883617,47.692695 L78.8841844,47.6932624 C79.3822695,47.8214184 79.7843972,47.9570213 80.0902837,48.0989362 C80.4057447,48.2455319 80.6238298,48.401773 80.7443262,48.5670922 C80.861773,48.728227 80.9497872,48.9034752 81.0086525,49.0929787 C81.0669504,49.2813475 81.096383,49.4832624 81.096383,49.6983688 C81.096383,50.3273759 80.8900709,50.8004255 80.477234,51.1175887 C80.0709929,51.43 79.4675887,51.5856738 78.6671631,51.5856738 C77.9196454,51.5856738 77.3365248,51.412695 76.9176596,51.066383 C76.4968085,50.7190071 76.2453901,50.2008511 76.1637589,49.512695 L76.2399291,49.4180851 Z M70.0159574,51.4005674 L70.0159574,45.562766 L70.100922,45.4775177 L71.2346809,45.4775177 L71.3067376,45.5179433 L73.5535461,49.160922 L73.5535461,45.562766 L73.6388652,45.4775177 L74.726383,45.4775177 L74.8113475,45.562766 L74.8113475,51.4005674 L74.726383,51.4858156 L73.5513475,51.4858156 L73.4790071,51.4453901 L71.2737589,47.892695 L71.2737589,51.4005674 L71.1887234,51.4858156 L70.100922,51.4858156 L70.0159574,51.4005674 Z M68.8792199,51.4858156 L67.5978014,51.4858156 L67.5182979,51.4305674 L67.0391489,50.1607092 L64.8132624,50.1607092 L64.348156,51.43 L64.2683688,51.4858156 L63.016383,51.4858156 L62.9371631,51.3700709 L65.2120567,45.5319858 L65.2912766,45.4775177 L66.5583688,45.4775177 L66.6370213,45.5314184 L68.9578723,51.3692199 L68.8792199,51.4858156 Z M66.6040426,49.0024823 L65.9114894,47.1673759 L65.238156,49.0024823 L66.6040426,49.0024823 Z M57.0709929,51.4005674 L57.0709929,45.562766 L57.1565957,45.4775177 L59.6317021,45.4775177 C60.0195035,45.4775177 60.36,45.507234 60.6531915,45.5666667 C60.9497163,45.6268794 61.1969504,45.7173759 61.3946809,45.8380851 C61.5996454,45.9629787 61.7531206,46.140922 61.8548936,46.3711348 C61.9543972,46.596383 62.0044681,46.8714184 62.0044681,47.1959574 C62.0044681,47.6860993 61.8685816,48.0756028 61.5968794,48.3635461 C61.3655319,48.6088652 61.0377305,48.7775177 60.6143972,48.8696454 C60.761844,48.9746809 60.9131206,49.112766 61.068227,49.2838298 C61.2880142,49.5270213 61.5168085,49.8378014 61.753617,50.2159574 L61.7541844,50.2159574 L62.4668085,51.3557447 L62.3944681,51.4858156 L60.9692199,51.4858156 L60.8985106,51.4475887 L59.6446099,49.5583688 L59.6443262,49.5583688 C59.5843972,49.4695035 59.5214184,49.3919149 59.4553901,49.3267376 C59.3912766,49.2631915 59.3239007,49.2107092 59.2537589,49.17 C59.1850355,49.1298582 59.0948227,49.0998582 58.9839716,49.0795035 C58.8690071,49.0585816 58.7306383,49.0478723 58.5692199,49.0478723 L58.4168085,49.0478723 L58.4168085,51.4005674 L58.3312766,51.4858156 L57.1565957,51.4858156 L57.0709929,51.4005674 Z M58.4168085,47.9526241 L59.1963121,47.9526241 C59.4883688,47.9526241 59.7312766,47.9405674 59.9243262,47.9160284 L59.9246099,47.9160284 C60.1132624,47.8924113 60.2551773,47.8574468 60.3484397,47.8115603 L60.3487234,47.8112766 C60.434539,47.7697163 60.4988652,47.7067376 60.5415603,47.6228369 C60.5866667,47.5340426 60.6092199,47.4195745 60.6092199,47.2795745 C60.6092199,47.1459574 60.5899291,47.0361702 60.5525532,46.9498582 C60.5175887,46.8695035 60.4656028,46.8092908 60.3973759,46.7696454 C60.3236879,46.7267376 60.1924823,46.6937589 60.0046099,46.6712057 C59.8093617,46.647305 59.5557447,46.635461 59.2441135,46.635461 L58.4168085,46.635461 L58.4168085,47.9526241 Z M52.8012766,51.4005674 L52.8012766,46.635461 L51.1487943,46.635461 L51.0638298,46.5502128 L51.0638298,45.562766 L51.1487943,45.4775177 L55.7868794,45.4775177 L55.871844,45.562766 L55.871844,46.5502128 L55.7868794,46.635461 L54.1467376,46.635461 L54.1467376,51.4005674 L54.0614894,51.4858156 L52.8865248,51.4858156 L52.8012766,51.4005674 Z" id="path-1"></path>
    </defs>
    <g id="desktop" stroke="none" stroke-width="1" fill="none" fill-rule="evenodd">
        <g id="landing" transform="translate(-90.000000, -25.000000)">
            <g id="Group-75" transform="translate(90.000000, 20.000000)">
                <g id="logo" transform="translate(0.000000, 5.000000)">
                    <mask id="mask-2" fill="white">
                        <use xlink:href="#path-1"></use>
                    </mask>
                    <use id="Clip-63" fill="#FFFFFF" xlink:href="#path-1"></use>
                    <path d="M93.9047652,42.5049645 L93.9047652,3.43858156 L98.804978,3.43858156 L98.804978,42.5049645 L93.9047652,42.5049645 Z M86.6135596,31.3390071 L86.6135596,30.1648227 C86.3156872,26.6365957 83.3578858,23.8658156 79.7526376,23.8658156 C75.9495879,23.8658156 72.8663255,26.9487234 72.8663255,30.751773 C72.8663255,34.5551064 75.9495879,37.6380851 79.7526376,37.6380851 C83.3578858,37.6380851 86.3156872,34.867234 86.6135596,31.3390071 Z M79.7526376,19.1529078 C82.3198716,19.1529078 84.6921411,19.9876596 86.6135596,21.3995035 L86.6135596,19.0651773 L91.5137723,19.0651773 L91.5137723,42.5049645 L86.6135596,42.5049645 L86.6135596,40.1041135 C84.6921411,41.5161702 82.3198716,42.350922 79.7526376,42.350922 C73.3465383,42.350922 68.1534887,37.1578014 68.1534887,30.751773 C68.1534887,24.3460284 73.3465383,19.1529078 79.7526376,19.1529078 Z M54.6319993,23.7535461 C50.8289496,23.7535461 47.7456872,26.8365248 47.7456872,30.6395035 C47.7456872,34.4425532 50.8289496,37.5258156 54.6319993,37.5258156 C58.4352617,37.5258156 61.5182404,34.4425532 61.5182404,30.6395035 C61.5182404,26.8365248 58.4352617,23.7535461 54.6319993,23.7535461 Z M54.6319993,19.0404255 C61.0380277,19.0404255 66.2310773,24.2337589 66.2310773,30.6395035 C66.2310773,37.0456028 61.0380277,42.2386525 54.6319993,42.2386525 C52.1458291,42.2386525 49.8423539,41.4558865 47.9541979,40.1243972 L47.9541979,51.606383 L43.0397298,51.606383 L43.0397298,31.0133333 C43.0355454,30.8890071 43.0328504,30.7646809 43.0328504,30.6395035 C43.0328504,24.2337589 48.2259,19.0404255 54.6319993,19.0404255 Z M18.6096589,0.15893617 C19.4738433,0.0521985816 20.3358291,0 21.1909355,0 C22.4511482,0 23.6971057,0.113262411 24.9161128,0.332765957 L24.9295879,0.335531915 C25.0679567,0.360283688 25.2054745,0.386666667 25.3427085,0.414468085 C25.3988078,0.425744681 25.4549071,0.436737589 25.5110064,0.44858156 C25.5932759,0.465602837 25.674978,0.483758865 25.7571766,0.502198582 C25.8641979,0.525602837 25.9708645,0.549787234 26.0773184,0.574822695 L26.157673,0.594609929 C28.997744,1.27971631 31.6147652,2.53617021 33.8792333,4.23702128 C33.9053326,4.25652482 33.9309355,4.27687943 33.9570348,4.29666667 C34.057744,4.37262411 34.1578149,4.44907801 34.2571057,4.52687943 C36.4792333,6.27014184 38.3643397,8.46609929 39.7590915,11.0231915 L39.8107936,11.1175177 C39.859517,11.2082979 39.9076021,11.2995745 39.9551908,11.3914894 C39.9964674,11.4704255 40.0374603,11.5493617 40.0778858,11.629078 C40.1010064,11.6756028 40.1243397,11.7226241 40.147744,11.7693617 C41.1381695,13.7631915 41.8227794,15.9348936 42.1426376,18.2241135 C42.1514319,18.2865248 42.1607936,18.3492199 42.1687369,18.4119149 C42.1773184,18.475461 42.1846943,18.5390071 42.1924248,18.6028369 C42.4576021,20.7453901 42.3879567,22.8714894 42.0183113,24.9211348 L42.0172475,24.9258156 C41.9919284,25.0682979 41.9646943,25.2099291 41.9358291,25.3515603 C41.9256163,25.4024823 41.9154745,25.4530496 41.904978,25.5039716 C41.8863255,25.5933333 41.8664674,25.6824823 41.8466801,25.7715603 C41.824978,25.87 41.8027085,25.9687943 41.7795879,26.067234 L41.753205,26.1747518 C41.067744,29.0060993 39.8144106,31.6153901 38.1190206,33.8738298 C38.0588078,33.9546809 37.9971766,34.0339007 37.9355454,34.113617 C37.9000844,34.1595745 37.8651908,34.2063121 37.8291624,34.2519858 C36.0834177,36.4795745 33.882283,38.3688652 31.318595,39.7649645 L31.2401553,39.8078723 C31.1450489,39.8590071 31.0490206,39.9093617 30.9530631,39.9594326 C30.8779567,39.998227 30.803134,40.037234 30.7275312,40.0757447 C30.6768929,40.1013475 30.6251908,40.126383 30.5742688,40.1517021 C30.4494461,40.2135461 30.3234887,40.2748936 30.1972475,40.3343262 L30.1815738,40.3419858 C28.301361,41.2262411 26.2707227,41.8426241 24.1374603,42.1416312 C24.0700844,42.1512766 24.0024248,42.1608511 23.9344816,42.1696454 C23.8764674,42.1770922 23.8178858,42.1839716 23.7593043,42.1914184 C21.4596589,42.4768794 19.1792333,42.3765248 16.9917865,41.9342553 C16.9456163,41.9248936 16.8993752,41.9158156 16.8529213,41.9061702 C16.7599426,41.886383 16.6672475,41.8663121 16.5745525,41.8453901 C16.4788787,41.8241844 16.3834177,41.802766 16.2885241,41.7804965 L16.1691624,41.7513475 C13.3414319,41.0653901 10.7354035,39.8131206 8.47866596,38.1193617 C8.37469432,38.041844 8.2723539,37.9623404 8.1700844,37.8828369 C8.14781489,37.8658156 8.12497801,37.8487234 8.10242482,37.8314184 C5.87618369,36.0865248 3.98746028,33.8867376 2.5910773,31.3252482 L2.54185745,31.2358865 C2.49263759,31.144539 2.44448156,31.0524113 2.39660922,30.9605674 C2.35561631,30.8816312 2.31441064,30.8029078 2.27448156,30.7234752 C2.25029716,30.6756028 2.22668014,30.6274468 2.2029922,30.5795745 C2.13972979,30.4525532 2.07781489,30.3246099 2.01703475,30.1961702 L2.01100638,30.182695 C1.12370142,28.2986525 0.507105672,26.2619858 0.208665956,24.1229787 C0.200155318,24.0629787 0.191290069,24.0024823 0.183346807,23.9425532 C0.175119857,23.8778723 0.16738936,23.8132624 0.159446098,23.7483688 C-0.105447519,21.605461 -0.0355893631,19.4793617 0.334056027,17.4300709 L0.334623403,17.4264539 C0.36022624,17.2848227 0.387460282,17.1434752 0.415758155,17.0023404 C0.426183687,16.9500709 0.436396452,16.8978014 0.44738936,16.8458156 C0.465261701,16.76 0.484552481,16.6741844 0.503488651,16.5884397 C0.52632553,16.4844681 0.549729786,16.3804965 0.574197871,16.277305 L0.595616311,16.1895745 C1.28079362,13.3524823 2.53632553,10.7376596 4.2352617,8.47489362 C4.2781695,8.41737589 4.32249574,8.36156028 4.36597092,8.30460993 C4.41845319,8.23617021 4.47043901,8.16680851 4.52384326,8.09893617 C6.26760213,5.87489362 8.46490709,3.98780142 11.0236305,2.59255319 C11.054978,2.57546099 11.0858291,2.55815603 11.1171766,2.54134752 C11.2081695,2.49241135 11.2998007,2.44425532 11.3916447,2.39666667 C11.4705808,2.35546099 11.549517,2.31446809 11.6290206,2.27432624 C11.6757582,2.2506383 11.7225667,2.22751773 11.7693043,2.20446809 C13.7647652,1.21319149 15.938666,0.527801418 18.2298007,0.208439716 C18.2894461,0.200212766 18.3488787,0.19141844 18.4083113,0.183404255 C18.4751199,0.174893617 18.5422121,0.166666667 18.6096589,0.15893617 Z M18.1841269,35.9946809 C19.1514319,36.1888652 20.1517865,36.2911348 21.1760418,36.2911348 C21.8020702,36.2911348 22.4192333,36.2526241 23.0251908,36.1783688 C23.0644816,36.1734752 23.1038433,36.1687943 23.143205,36.1638298 C23.194056,36.1569504 23.2441269,36.1497872 23.2946943,36.1426241 C23.8921411,36.0573759 24.4905808,35.936383 25.0880277,35.7763121 C25.9667511,35.5405674 26.8073184,35.2325532 27.6032759,34.8595745 L27.6178858,34.852695 C27.7075312,34.8103546 27.7968929,34.7668794 27.8857582,34.7225532 L27.9938433,34.6689362 C28.0483113,34.6417021 28.1022121,34.6136879 28.1558291,34.5856028 C28.2249071,34.5495745 28.2939142,34.5135461 28.3627085,34.4764539 L28.4138433,34.4483688 C30.219517,33.4623404 31.8012901,32.1179433 33.0645525,30.5114184 C33.0937014,30.4742553 33.1219993,30.4365957 33.1509355,30.3991489 C33.1910773,30.3466667 33.2317865,30.2946809 33.271361,30.241844 C34.4947652,28.6070213 35.3829213,26.7331206 35.8683113,24.7360284 L35.8834887,24.6739007 C35.9016447,24.5987943 35.9180986,24.5236879 35.9349071,24.4480851 C35.9483823,24.3880851 35.9615738,24.3284397 35.9742688,24.268156 C35.9819284,24.2302128 35.9893752,24.1922695 35.9970348,24.1543262 C36.0168929,24.0553191 36.0363965,23.9560284 36.0539851,23.8564539 L36.0564674,23.8451773 C36.2107936,22.9787943 36.291361,22.0868085 36.291361,21.1758865 C36.291361,20.5564539 36.2534177,19.9461702 36.1805099,19.3460284 C36.1747652,19.2967376 36.1689496,19.247234 36.1623539,19.1980142 C36.1571057,19.157305 36.1510773,19.1174468 36.1453326,19.0770213 C36.0600844,18.4732624 35.9379567,17.8679433 35.7761837,17.2639007 C35.5110773,16.2743262 35.1529213,15.3344681 34.7151199,14.4504965 L34.6744106,14.3685106 C34.6427794,14.3052482 34.6097298,14.2425532 34.5770348,14.1795745 C34.5456872,14.1196454 34.5143397,14.059078 34.4818574,13.9994326 C34.4675312,13.972766 34.4524248,13.9463121 34.4380986,13.9196454 C33.453205,12.123617 32.1145525,10.5484397 30.5149071,9.29042553 C28.8164674,7.95808511 26.8436305,6.99595745 24.7337723,6.48304965 L24.6749071,6.4687234 C24.5989496,6.45056738 24.5227794,6.43375887 24.4466092,6.41673759 C24.3874603,6.40382979 24.3283113,6.39035461 24.2689496,6.37794326 C24.230439,6.37 24.1916447,6.3622695 24.1525667,6.3548227 C24.0546943,6.33503546 23.9564674,6.31553191 23.8574603,6.29794326 L23.8439851,6.29546099 C22.9781695,6.14141844 22.0864674,6.06056738 21.1760418,6.06056738 C20.5558291,6.06056738 19.9444106,6.09879433 19.3439851,6.17170213 C19.2958291,6.17744681 19.2474603,6.18319149 19.1990206,6.18957447 C19.1575312,6.19475177 19.1162546,6.20113475 19.0746943,6.20687943 C18.4712901,6.29212766 17.8670348,6.41397163 17.2638433,6.57595745 C16.2753326,6.84085106 15.3366092,7.19815603 14.4537014,7.63546099 L14.3662546,7.67893617 C14.3049071,7.70971631 14.2438433,7.74134752 14.1830631,7.77326241 C14.1212191,7.80546099 14.0587369,7.83787234 13.9971766,7.87113475 L13.9239851,7.91163121 C12.1249071,8.8970922 10.5480986,10.2373759 9.28838227,11.8395035 C9.25015532,11.888156 9.21306312,11.9376596 9.17504893,11.9869504 C9.14370142,12.0276596 9.11207021,12.0680851 9.08129007,12.1092908 C7.86036808,13.7405674 6.97306312,15.6103546 6.48682198,17.6030496 L6.46646737,17.6852482 C6.45050993,17.7540426 6.43511986,17.8233333 6.4194461,17.8924113 C6.40483617,17.9583688 6.39022624,18.0243972 6.37625461,18.0909929 L6.35696383,18.1869504 C6.16334681,19.1531915 6.06072269,20.152695 6.06072269,21.1758865 C6.06072269,21.802695 6.09951702,22.4204255 6.17377234,23.0271631 C6.17873688,23.0656738 6.18313404,23.103617 6.18809858,23.1421277 C6.19469432,23.1930496 6.20242482,23.2441844 6.20930425,23.2948227 C6.29483617,23.8921986 6.41582908,24.4909929 6.57561631,25.0883688 C6.81079362,25.9651773 7.11802766,26.8035461 7.49015532,27.598156 L7.50143191,27.621773 C7.54214113,27.7087234 7.58391418,27.7942553 7.62632553,27.8797872 C7.64582908,27.919078 7.66511986,27.9587234 7.68490709,27.9978014 C7.71072269,28.0492199 7.73767305,28.1003546 7.76412695,28.1512766 C7.80150284,28.222766 7.83838227,28.2939716 7.87660922,28.3652482 L7.9010773,28.4092199 C8.88845319,30.2173759 10.2339851,31.8019149 11.8429922,33.0665248 L11.8746234,33.0907801 C11.9535596,33.1523404 12.0327794,33.2131206 12.1128504,33.2734043 C13.7429922,34.4926241 15.6105808,35.3785816 17.6010064,35.8648227 L17.6866092,35.885461 C17.7539851,35.9017021 17.8222121,35.9165248 17.8898716,35.9319858 C17.9575312,35.9470922 18.0251908,35.9621986 18.0928504,35.9759574 C18.1233468,35.9825532 18.1539142,35.9883688 18.1841269,35.9946809 Z" id="Clip-66" fill="#FFFFFF"></path>
                </g>
            </g>
        </g>
    </g>
</svg>