<?xml version="1.0" encoding="UTF-8"?>
<svg width="15px" height="20px" viewBox="0 0 15 20" version="1.1" xmlns="http://www.w3.org/2000/svg" xmlns:xlink="http://www.w3.org/1999/xlink">
    <title>D52558E6-08B1-469B-92F3-86C48EE0ED2E</title>
    <g id="desktop" stroke="none" stroke-width="1" fill="none" fill-rule="evenodd">
        <g id="landing" transform="translate(-898.000000, -406.000000)" fill="#FFFFFF" fill-rule="nonzero">
            <g id="Group-9" transform="translate(880.000000, 170.000000)">
                <g id="fire" transform="translate(18.000000, 236.000000)">
                    <path d="M8.43750327,0.93788323 C8.43750327,0.00819536888 7.2203153,-0.355476647 6.71289323,0.428508032 C2.99023554,6.18163526 7.81250303,9.32538648 7.81250303,11.2499966 C7.81250303,12.1117157 7.11172151,12.8124972 6.25000242,12.8124972 C5.38828334,12.8124972 4.68750182,12.1117157 4.68750182,11.2499966 L4.68750182,7.11444813 C4.68750182,6.35702596 3.83359524,5.91288516 3.21367312,6.34569783 C1.20117234,7.749214 0,10.0499961 0,12.5 C0,16.6355456 3.36445443,20 7.5,20 C11.6355514,20 15,16.6355456 15,12.5 C15,5.84804138 8.43750327,4.96679104 8.43750327,0.93788323 Z M7.50000291,18.1249935 C4.39843921,18.1249935 1.87500073,15.6015608 1.87500073,12.4999971 C1.87500073,11.3804654 2.20937586,9.97226173 2.81250109,9.06249576 L2.81250109,11.2499966 C2.81250109,13.1453098 4.35468919,14.6874979 6.25000242,14.6874979 C8.14531566,14.6874979 9.68750376,13.1453098 9.68750376,11.2499966 C9.68750376,8.73944876 6.25000242,6.56249479 7.18750279,3.12499345 C8.75000339,6.56249479 13.1250051,7.88163592 13.1250051,12.4999971 C13.1250051,15.6015608 10.6015666,18.1249935 7.50000291,18.1249935 Z" id="Shape"></path>
                </g>
            </g>
        </g>
    </g>
</svg>