<?xml version="1.0" encoding="UTF-8"?>
<svg width="32px" height="39px" viewBox="0 0 32 39" version="1.1" xmlns="http://www.w3.org/2000/svg" xmlns:xlink="http://www.w3.org/1999/xlink">
    <title>B900BC40-030A-46CE-95A2-C0252E335EEF</title>
    <g id="desktop" stroke="none" stroke-width="1" fill="none" fill-rule="evenodd">
        <g id="landing" transform="translate(-179.000000, -671.000000)" fill="#FFFFFF" fill-rule="nonzero">
            <g id="Group-3" transform="translate(90.000000, 659.000000)">
                <g id="Group-74" transform="translate(74.000000, 0.000000)">
                    <g id="headphones-alt" transform="translate(15.000000, 12.000000)">
                        <path d="M16,0 C24.8225,0 32,7.178125 32,16 L32,29.8 C32,33.6659932 28.8659932,36.8 25,36.8 L22.9499027,36.8004345 C22.7180997,37.9413382 21.7093254,38.8 20.5,38.8 L15.5,38.8 C14.1192881,38.8 13,37.6807119 13,36.3 L13,35.3 C13,33.9192881 14.1192881,32.8 15.5,32.8 L20.5,32.8 C21.7093254,32.8 22.7180997,33.6586618 22.9499027,34.7995655 L25,34.8 C27.7614237,34.8 30,32.5614237 30,29.8 L30,16 C30,8.28 23.71875,2 16,2 C8.28125,2 2,8.28 2,16 L2,18.9 C2,19.17625 1.77625,19.4 1.5,19.4 L0.5,19.4 C0.22375,19.4 0,19.17625 0,18.9 L0,16 C0,7.178125 7.1775,0 16,0 Z M20.5,34.8 L15.5,34.8 C15.2545401,34.8 15.0503916,34.9768752 15.0080557,35.2101244 L15,35.3 L15,36.3 C15,36.5454599 15.1768752,36.7496084 15.4101244,36.7919443 L15.5,36.8 L20.5,36.8 C20.7454599,36.8 20.9496084,36.6231248 20.9919443,36.3898756 L21,36.3 L21,35.3 C21,35.0545401 20.8231248,34.8503916 20.5898756,34.8080557 L20.5,34.8 Z M24,14.4 C26.209375,14.4 28,16.194375 28,18.4075 L28,22.3925 C28,24.605625 26.209375,26.4 24,26.4 L22,26.4 C20.895625,26.4 20,25.5025 20,24.39625 L20,16.40375 C20,15.296875 20.895625,14.4 22,14.4 L24,14.4 Z M10,14.4 C11.104375,14.4 12,15.296875 12,16.40375 L12,24.39625 C12,25.503125 11.104375,26.4 10,26.4 L8,26.4 C5.790625,26.4 4,24.605625 4,22.3925 L4,18.4075 C4,16.194375 5.790625,14.4 8,14.4 L10,14.4 Z M24,16.40375 L22,16.40375 L22,24.39625 L24,24.39625 C25.1025,24.39625 26,23.4975 26,22.3925 L26,18.4075 C26,17.3025 25.1025,16.40375 24,16.40375 Z M10,16.40375 L8,16.40375 C6.8975,16.40375 6,17.3025 6,18.4075 L6,22.3925 C6,23.4975 6.8975,24.39625 8,24.39625 L10,24.39625 L10,16.40375 Z" id="Shape"></path>
                    </g>
                </g>
            </g>
        </g>
    </g>
</svg>