<?xml version="1.0" encoding="UTF-8"?>
<svg width="16px" height="16px" viewBox="0 0 16 16" version="1.1" xmlns="http://www.w3.org/2000/svg" xmlns:xlink="http://www.w3.org/1999/xlink">
    <title>EA855E97-AE16-4240-8C61-C0226B7668EB</title>
    <g id="desktop" stroke="none" stroke-width="1" fill="none" fill-rule="evenodd">
        <g id="landing" transform="translate(-898.000000, -363.000000)" fill="#FFFFFF" fill-rule="nonzero">
            <g id="Group-9" transform="translate(880.000000, 170.000000)">
                <g id="Group-5" transform="translate(15.000000, 190.000000)">
                    <g id="percentage" transform="translate(3.000000, 3.000000)">
                        <path d="M15.883125,1.814 C16.039125,1.658 16.039125,1.4045 15.883125,1.2485 L14.751625,0.117 C14.595625,-0.039 14.342125,-0.039 14.186125,0.117 L0.117125,14.1855 C-0.038875,14.3415 -0.038875,14.595 0.117125,14.751 L1.248625,15.8825 C1.404625,16.0385 1.658125,16.0385 1.814125,15.8825 L14.825125,2.872 L15.883125,1.814 Z M3.200125,6.4 C4.019125,6.4 4.838125,6.0875 5.462625,5.463 C6.712125,4.2135 6.712125,2.187 5.462625,0.9375 C4.838125,0.3125 4.019125,0 3.200125,0 C2.381125,0 1.562125,0.3125 0.937125,0.9375 C-0.312375,2.187 -0.312375,4.2135 0.937125,5.463 C1.562125,6.0875 2.381125,6.4 3.200125,6.4 Z M2.069125,2.0685 C2.371125,1.7665 2.772625,1.6 3.200125,1.6 C3.627625,1.6 4.029125,1.7665 4.331625,2.0685 C4.955625,2.6925 4.955125,3.7075 4.331625,4.331 C4.029625,4.6335 3.627625,4.8 3.200125,4.8 C2.772625,4.8 2.371125,4.6335 2.069125,4.3315 C1.445125,3.7075 1.445125,2.6925 2.069125,2.0685 Z M12.800125,9.6 C11.981125,9.6 11.162125,9.9125 10.537125,10.5375 C9.287625,11.787 9.287625,13.8135 10.537125,15.063 C11.162125,15.6875 11.981125,16 12.800125,16 C13.619125,16 14.438125,15.6875 15.062625,15.063 C16.312125,13.8135 16.312125,11.787 15.062625,10.5375 C14.438125,9.9125 13.619125,9.6 12.800125,9.6 Z M13.931625,13.9315 C13.629625,14.2335 13.227625,14.4 12.800125,14.4 C12.372625,14.4 11.971125,14.2335 11.669125,13.9315 C11.045125,13.3075 11.045125,12.2925 11.669125,11.6685 C11.971125,11.3665 12.373125,11.2 12.800125,11.2 C13.227625,11.2 13.629125,11.3665 13.931625,11.6685 C14.555625,12.2925 14.555125,13.3075 13.931625,13.9315 Z" id="Shape"></path>
                    </g>
                </g>
            </g>
        </g>
    </g>
</svg>