<?xml version="1.0" encoding="UTF-8"?>
<svg width="28px" height="28px" viewBox="0 0 28 28" version="1.1" xmlns="http://www.w3.org/2000/svg" xmlns:xlink="http://www.w3.org/1999/xlink">
    <title>5C64EFFC-9FEF-4F63-BBBA-BA0EB316D5BD</title>
    <g id="desktop" stroke="none" stroke-width="1" fill="none" fill-rule="evenodd">
        <g id="landing" transform="translate(-936.000000, -36.000000)" fill-rule="nonzero" stroke="#FFFFFF" stroke-width="2">
            <g id="Group-75" transform="translate(90.000000, 20.000000)">
                <g id="Group-72" transform="translate(830.000000, 0.000000)">
                    <g id="phone-alt" transform="translate(17.000000, 17.000000)">
                        <path d="M24.6548125,17.5649596 L19.2352485,15.2399322 C18.5955362,14.9671364 17.8525701,15.148298 17.410227,15.6849374 L15.205201,18.3799693 C11.7369193,16.6741595 8.93091656,13.8681567 7.22510675,10.3998751 L9.92013857,8.19484902 C10.4566952,7.75267166 10.6378617,7.00988886 10.3651438,6.37032748 L8.04011637,0.945263439 C7.74011241,0.251067609 6.98699927,-0.129696299 6.25009524,0.0402527547 L1.21003574,1.20526651 C0.500335516,1.36578462 -0.00267280196,1.99766284 1.06856726e-05,2.72528445 C1.06856726e-05,15.389934 10.2651426,25.6000573 22.8747915,25.6000573 C23.6047903,25.6014239 24.2383223,25.0968409 24.4003095,24.3850402 L25.5598232,19.3499807 C25.7296367,18.6143941 25.3485402,17.8627285 24.6548125,17.5649596 L24.6548125,17.5649596 Z" id="Path"></path>
                    </g>
                </g>
            </g>
        </g>
    </g>
</svg>