<svg width="16" height="17" viewBox="0 0 16 17" fill="none" xmlns="http://www.w3.org/2000/svg">
<path d="M7.99991 0.646439C10.7569 0.646439 12.9999 2.88941 12.9999 5.64644V11.3318L14.013 10.2533C14.3029 9.94475 14.7906 9.93713 15.09 10.2365L15.4267 10.5732C15.7196 10.8661 15.7196 11.341 15.4267 11.6339L12.5303 14.5303C12.2374 14.8232 11.7625 14.8232 11.4696 14.5303L8.5732 11.6339C8.28029 11.341 8.28029 10.8661 8.5732 10.5732L8.90991 10.2365C9.20932 9.93709 9.69701 9.94472 9.98691 10.2533L10.9999 11.3318V5.64644C10.9999 3.99222 9.65413 2.64644 7.99991 2.64644C7.56373 2.64644 7.14904 2.74006 6.77479 2.90819C6.49232 3.0351 6.16148 2.97956 5.94251 2.76059L5.56179 2.37988C5.20245 2.02053 5.29535 1.41222 5.74873 1.18263C6.42566 0.839751 7.19063 0.646439 7.99991 0.646439ZM9.22504 14.3847C8.85079 14.5528 8.4361 14.6464 7.99991 14.6464C6.3457 14.6464 4.99991 13.3007 4.99991 11.6464L4.99991 5.96103L6.01301 7.03953C6.30288 7.34813 6.7906 7.35575 7.09001 7.05638L7.42673 6.71966C7.7196 6.42675 7.7196 5.95191 7.42673 5.659L4.53029 2.76256C4.23738 2.46966 3.76254 2.46966 3.46963 2.76256L0.573195 5.659C0.280289 5.95191 0.280289 6.42675 0.573195 6.71966L0.909914 7.05638C1.20932 7.35578 1.69701 7.34816 1.98691 7.03953L2.99991 5.96103V11.6464C2.99991 14.4035 5.24291 16.6464 7.99991 16.6464C8.8092 16.6464 9.57416 16.4531 10.2511 16.1103C10.7045 15.8807 10.7974 15.2724 10.4381 14.913L10.0574 14.5323C9.83835 14.3133 9.50751 14.2578 9.22504 14.3847Z" fill="#64AD3C"/>
</svg>
