<?xml version="1.0" encoding="UTF-8"?>
<svg width="17px" height="20px" viewBox="0 0 17 20" version="1.1" xmlns="http://www.w3.org/2000/svg" xmlns:xlink="http://www.w3.org/1999/xlink">
    <title>EE47E3C0-2A3F-43F9-BEAD-B7C325B2B11E</title>
    <g id="desktop" stroke="none" stroke-width="1" fill="none" fill-rule="evenodd">
        <g id="landing" transform="translate(-897.000000, -451.000000)" fill="#FFFFFF" fill-rule="nonzero">
            <g id="Group-9" transform="translate(880.000000, 170.000000)">
                <g id="stopwatch" transform="translate(17.000000, 281.000000)">
                    <path d="M14.7617187,7.1875 L15.6445312,6.3046875 C15.828125,6.12109375 15.828125,5.82421875 15.6445312,5.640625 L14.9804688,4.9765625 C14.796875,4.79296875 14.5,4.79296875 14.3164062,4.9765625 L13.5078125,5.78515625 C12.2929687,4.7109375 10.7578125,3.9921875 9.0625,3.80078125 L9.0625,1.875 L10.15625,1.875 C10.4140625,1.875 10.625,1.6640625 10.625,1.40625 L10.625,0.46875 C10.625,0.2109375 10.4140625,0 10.15625,0 L6.09375,0 C5.8359375,0 5.625,0.2109375 5.625,0.46875 L5.625,1.40625 C5.625,1.6640625 5.8359375,1.875 6.09375,1.875 L7.1875,1.875 L7.1875,3.8046875 C3.140625,4.26953125 0,7.703125 0,11.875 C0,16.3632812 3.63671875,20 8.125,20 C12.6132812,20 16.25,16.3632812 16.25,11.875 C16.25,10.1289062 15.6992188,8.51171875 14.7617187,7.1875 Z M8.125,18.125 C4.671875,18.125 1.875,15.328125 1.875,11.875 C1.875,8.421875 4.671875,5.625 8.125,5.625 C11.578125,5.625 14.375,8.421875 14.375,11.875 C14.375,15.328125 11.578125,18.125 8.125,18.125 Z M8.59375,13.75 L7.65625,13.75 C7.3984375,13.75 7.1875,13.5390625 7.1875,13.28125 L7.1875,7.96875 C7.1875,7.7109375 7.3984375,7.5 7.65625,7.5 L8.59375,7.5 C8.8515625,7.5 9.0625,7.7109375 9.0625,7.96875 L9.0625,13.28125 C9.0625,13.5390625 8.8515625,13.75 8.59375,13.75 Z" id="Shape"></path>
                </g>
            </g>
        </g>
    </g>
</svg>